{
	"asset":{
		"generator":"Khronos glTF Blender I/O v4.4.55",
		"version":"2.0"
	},
	"extensionsUsed":[
		"KHR_materials_clearcoat",
		"KHR_materials_sheen"
	],
	"scene":0,
	"scenes":[
		{
			"name":"Scene",
			"nodes":[
				0,
				1,
				2,
				3,
				4,
				5,
				6,
				7,
				8,
				9,
				10,
				11,
				12,
				13,
				14,
				15,
				16
			]
		}
	],
	"nodes":[
		{
			"mesh":0,
			"name":"Cube"
		},
		{
			"mesh":1,
			"name":"Cube.001"
		},
		{
			"mesh":2,
			"name":"Cube.002"
		},
		{
			"mesh":3,
			"name":"Cylinder"
		},
		{
			"mesh":4,
			"name":"Cube.003"
		},
		{
			"mesh":5,
			"name":"Cylinder.001"
		},
		{
			"mesh":6,
			"name":"Cube.004"
		},
		{
			"mesh":7,
			"name":"Cube.005"
		},
		{
			"mesh":8,
			"name":"Cube.006"
		},
		{
			"mesh":9,
			"name":"Cube.007"
		},
		{
			"mesh":10,
			"name":"Cube.008"
		},
		{
			"mesh":11,
			"name":"Cube.009"
		},
		{
			"mesh":12,
			"name":"Cylinder.003"
		},
		{
			"mesh":13,
			"name":"Cylinder.005",
			"translation":[
				-0.002132081426680088,
				-0.0018153286073356867,
				0
			]
		},
		{
			"mesh":14,
			"name":"Cylinder.004"
		},
		{
			"mesh":15,
			"name":"Cylinder.002"
		},
		{
			"mesh":16,
			"name":"Cylinder.006"
		}
	],
	"materials":[
		{
			"doubleSided":true,
			"extensions":{
				"KHR_materials_clearcoat":{
					"clearcoatRoughnessFactor":0
				},
				"KHR_materials_sheen":{
					"sheenColorFactor":[
						1.0,
						1.0,
						1.0
					],
					"sheenRoughnessFactor":0.2688821852207184
				}
			},
			"name":"Basic",
			"pbrMetallicRoughness":{
				"baseColorTexture":{
					"index":0
				},
				"metallicFactor":0.5,
				"roughnessFactor":0.6000000238418579
			}
		}
	],
	"meshes":[
		{
			"name":"Cube.001",
			"primitives":[
				{
					"attributes":{
						"POSITION":0,
						"NORMAL":1,
						"TEXCOORD_0":2
					},
					"indices":3,
					"material":0
				}
			]
		},
		{
			"name":"Cube.002",
			"primitives":[
				{
					"attributes":{
						"POSITION":4,
						"NORMAL":5,
						"TEXCOORD_0":6
					},
					"indices":7,
					"material":0
				}
			]
		},
		{
			"name":"Cube.003",
			"primitives":[
				{
					"attributes":{
						"POSITION":8,
						"NORMAL":9,
						"TEXCOORD_0":10
					},
					"indices":11,
					"material":0
				}
			]
		},
		{
			"name":"Cylinder",
			"primitives":[
				{
					"attributes":{
						"POSITION":12,
						"NORMAL":13,
						"TEXCOORD_0":14
					},
					"indices":15,
					"material":0
				}
			]
		},
		{
			"name":"Cube.004",
			"primitives":[
				{
					"attributes":{
						"POSITION":16,
						"NORMAL":17,
						"TEXCOORD_0":18
					},
					"indices":19,
					"material":0
				}
			]
		},
		{
			"name":"Cylinder.001",
			"primitives":[
				{
					"attributes":{
						"POSITION":20,
						"NORMAL":21,
						"TEXCOORD_0":22
					},
					"indices":23,
					"material":0
				}
			]
		},
		{
			"name":"Cube.005",
			"primitives":[
				{
					"attributes":{
						"POSITION":24,
						"NORMAL":25,
						"TEXCOORD_0":26
					},
					"indices":27,
					"material":0
				}
			]
		},
		{
			"name":"Cube.006",
			"primitives":[
				{
					"attributes":{
						"POSITION":28,
						"NORMAL":29,
						"TEXCOORD_0":30
					},
					"indices":31,
					"material":0
				}
			]
		},
		{
			"name":"Cube.007",
			"primitives":[
				{
					"attributes":{
						"POSITION":32,
						"NORMAL":33,
						"TEXCOORD_0":34
					},
					"indices":35,
					"material":0
				}
			]
		},
		{
			"name":"Cube.008",
			"primitives":[
				{
					"attributes":{
						"POSITION":36,
						"NORMAL":37,
						"TEXCOORD_0":38
					},
					"indices":39,
					"material":0
				}
			]
		},
		{
			"name":"Cube.009",
			"primitives":[
				{
					"attributes":{
						"POSITION":40,
						"NORMAL":41,
						"TEXCOORD_0":42
					},
					"indices":43,
					"material":0
				}
			]
		},
		{
			"name":"Cube.010",
			"primitives":[
				{
					"attributes":{
						"POSITION":44,
						"NORMAL":45,
						"TEXCOORD_0":46
					},
					"indices":47,
					"material":0
				}
			]
		},
		{
			"name":"Cylinder.003",
			"primitives":[
				{
					"attributes":{
						"POSITION":48,
						"NORMAL":49,
						"TEXCOORD_0":50
					},
					"indices":51,
					"material":0
				}
			]
		},
		{
			"name":"Cylinder.005",
			"primitives":[
				{
					"attributes":{
						"POSITION":52,
						"NORMAL":53,
						"TEXCOORD_0":54
					},
					"indices":55,
					"material":0
				}
			]
		},
		{
			"name":"Cylinder.004",
			"primitives":[
				{
					"attributes":{
						"POSITION":56,
						"NORMAL":57,
						"TEXCOORD_0":58
					},
					"indices":59,
					"material":0
				}
			]
		},
		{
			"name":"Cylinder.002",
			"primitives":[
				{
					"attributes":{
						"POSITION":60,
						"NORMAL":61,
						"TEXCOORD_0":62
					},
					"indices":63,
					"material":0
				}
			]
		},
		{
			"name":"Cylinder.006",
			"primitives":[
				{
					"attributes":{
						"POSITION":64,
						"NORMAL":65,
						"TEXCOORD_0":66
					},
					"indices":67,
					"material":0
				}
			]
		}
	],
	"textures":[
		{
			"sampler":0,
			"source":0
		}
	],
	"images":[
		{
			"mimeType":"image/png",
			"name":"base",
			"uri":"base.png"
		}
	],
	"accessors":[
		{
			"bufferView":0,
			"componentType":5126,
			"count":50,
			"max":[
				0.04518944025039673,
				0.01905956119298935,
				0.049846429377794266
			],
			"min":[
				-0.09082943201065063,
				-0.0179792158305645,
				-0.049846429377794266
			],
			"type":"VEC3"
		},
		{
			"bufferView":1,
			"componentType":5126,
			"count":50,
			"type":"VEC3"
		},
		{
			"bufferView":2,
			"componentType":5126,
			"count":50,
			"type":"VEC2"
		},
		{
			"bufferView":3,
			"componentType":5123,
			"count":132,
			"type":"SCALAR"
		},
		{
			"bufferView":4,
			"componentType":5126,
			"count":64,
			"max":[
				0.008212086744606495,
				0.04226960614323616,
				0.037619780749082565
			],
			"min":[
				-0.04816414415836334,
				0.02346612699329853,
				-0.037619780749082565
			],
			"type":"VEC3"
		},
		{
			"bufferView":5,
			"componentType":5126,
			"count":64,
			"type":"VEC3"
		},
		{
			"bufferView":6,
			"componentType":5126,
			"count":64,
			"type":"VEC2"
		},
		{
			"bufferView":7,
			"componentType":5123,
			"count":132,
			"type":"SCALAR"
		},
		{
			"bufferView":8,
			"componentType":5126,
			"count":24,
			"max":[
				0.016911152750253677,
				0.07739035785198212,
				0.04032358154654503
			],
			"min":[
				-0.04310651123523712,
				0.059781093150377274,
				0.00424831360578537
			],
			"type":"VEC3"
		},
		{
			"bufferView":9,
			"componentType":5126,
			"count":24,
			"type":"VEC3"
		},
		{
			"bufferView":10,
			"componentType":5126,
			"count":24,
			"type":"VEC2"
		},
		{
			"bufferView":11,
			"componentType":5123,
			"count":36,
			"type":"SCALAR"
		},
		{
			"bufferView":12,
			"componentType":5126,
			"count":206,
			"max":[
				-0.07388042658567429,
				0.22719798982143402,
				0.044552892446517944
			],
			"min":[
				-0.08457699418067932,
				0.015423686243593693,
				-0.044552892446517944
			],
			"type":"VEC3"
		},
		{
			"bufferView":13,
			"componentType":5126,
			"count":206,
			"type":"VEC3"
		},
		{
			"bufferView":14,
			"componentType":5126,
			"count":206,
			"type":"VEC2"
		},
		{
			"bufferView":15,
			"componentType":5123,
			"count":648,
			"type":"SCALAR"
		},
		{
			"bufferView":16,
			"componentType":5126,
			"count":24,
			"max":[
				0.058963969349861145,
				0.08093119412660599,
				0.012717721983790398
			],
			"min":[
				0.045477405190467834,
				0.05659729242324829,
				-0.012717721983790398
			],
			"type":"VEC3"
		},
		{
			"bufferView":17,
			"componentType":5126,
			"count":24,
			"type":"VEC3"
		},
		{
			"bufferView":18,
			"componentType":5126,
			"count":24,
			"type":"VEC2"
		},
		{
			"bufferView":19,
			"componentType":5123,
			"count":36,
			"type":"SCALAR"
		},
		{
			"bufferView":20,
			"componentType":5126,
			"count":404,
			"max":[
				0.033135220408439636,
				0.033135220408439636,
				0.06565900146961212
			],
			"min":[
				-0.033135220408439636,
				-0.033135220408439636,
				-0.06565900146961212
			],
			"type":"VEC3"
		},
		{
			"bufferView":21,
			"componentType":5126,
			"count":404,
			"type":"VEC3"
		},
		{
			"bufferView":22,
			"componentType":5126,
			"count":404,
			"type":"VEC2"
		},
		{
			"bufferView":23,
			"componentType":5123,
			"count":1236,
			"type":"SCALAR"
		},
		{
			"bufferView":24,
			"componentType":5126,
			"count":48,
			"max":[
				0.04130179062485695,
				0.06350571662187576,
				0.020218173041939735
			],
			"min":[
				0.02298259735107422,
				0.018944378942251205,
				-0.020218173041939735
			],
			"type":"VEC3"
		},
		{
			"bufferView":25,
			"componentType":5126,
			"count":48,
			"type":"VEC3"
		},
		{
			"bufferView":26,
			"componentType":5126,
			"count":48,
			"type":"VEC2"
		},
		{
			"bufferView":27,
			"componentType":5123,
			"count":108,
			"type":"SCALAR"
		},
		{
			"bufferView":28,
			"componentType":5126,
			"count":40,
			"max":[
				0.03311261907219887,
				0.05054616555571556,
				0.04033414274454117
			],
			"min":[
				-0.06444428116083145,
				0.0477922260761261,
				-0.04033414274454117
			],
			"type":"VEC3"
		},
		{
			"bufferView":29,
			"componentType":5126,
			"count":40,
			"type":"VEC3"
		},
		{
			"bufferView":30,
			"componentType":5126,
			"count":40,
			"type":"VEC2"
		},
		{
			"bufferView":31,
			"componentType":5123,
			"count":84,
			"type":"SCALAR"
		},
		{
			"bufferView":32,
			"componentType":5126,
			"count":38,
			"max":[
				0.03311261907219887,
				0.022929349914193153,
				0.04033414274454117
			],
			"min":[
				-0.08020242303609848,
				0.02017541229724884,
				-0.04033414274454117
			],
			"type":"VEC3"
		},
		{
			"bufferView":33,
			"componentType":5126,
			"count":38,
			"type":"VEC3"
		},
		{
			"bufferView":34,
			"componentType":5126,
			"count":38,
			"type":"VEC2"
		},
		{
			"bufferView":35,
			"componentType":5123,
			"count":84,
			"type":"SCALAR"
		},
		{
			"bufferView":36,
			"componentType":5126,
			"count":40,
			"max":[
				0.005095490254461765,
				0.08840051293373108,
				0.04032358154654503
			],
			"min":[
				-0.031290847808122635,
				0.07739035785198212,
				0.00424831360578537
			],
			"type":"VEC3"
		},
		{
			"bufferView":37,
			"componentType":5126,
			"count":40,
			"type":"VEC3"
		},
		{
			"bufferView":38,
			"componentType":5126,
			"count":40,
			"type":"VEC2"
		},
		{
			"bufferView":39,
			"componentType":5123,
			"count":84,
			"type":"SCALAR"
		},
		{
			"bufferView":40,
			"componentType":5126,
			"count":96,
			"max":[
				0.022430922836065292,
				0.06785985082387924,
				-0.017424199730157852
			],
			"min":[
				-0.05066312849521637,
				0.05139853432774544,
				-0.04040459543466568
			],
			"type":"VEC3"
		},
		{
			"bufferView":41,
			"componentType":5126,
			"count":96,
			"type":"VEC3"
		},
		{
			"bufferView":42,
			"componentType":5126,
			"count":96,
			"type":"VEC2"
		},
		{
			"bufferView":43,
			"componentType":5123,
			"count":144,
			"type":"SCALAR"
		},
		{
			"bufferView":44,
			"componentType":5126,
			"count":24,
			"max":[
				0.024949532002210617,
				0.05970115214586258,
				0.04032358154654503
			],
			"min":[
				-0.051144883036613464,
				0.05111699551343918,
				-0.013440890237689018
			],
			"type":"VEC3"
		},
		{
			"bufferView":45,
			"componentType":5126,
			"count":24,
			"type":"VEC3"
		},
		{
			"bufferView":46,
			"componentType":5126,
			"count":24,
			"type":"VEC2"
		},
		{
			"bufferView":47,
			"componentType":5123,
			"count":36,
			"type":"SCALAR"
		},
		{
			"bufferView":48,
			"componentType":5126,
			"count":42,
			"max":[
				0.04373011738061905,
				-0.014202150516211987,
				0.007275885436683893
			],
			"min":[
				0.03112790919840336,
				-0.0322522334754467,
				-0.007275889161974192
			],
			"type":"VEC3"
		},
		{
			"bufferView":49,
			"componentType":5126,
			"count":42,
			"type":"VEC3"
		},
		{
			"bufferView":50,
			"componentType":5126,
			"count":42,
			"type":"VEC2"
		},
		{
			"bufferView":51,
			"componentType":5123,
			"count":96,
			"type":"SCALAR"
		},
		{
			"bufferView":52,
			"componentType":5126,
			"count":28,
			"max":[
				0.0501578189432621,
				0.07106591761112213,
				0.015548059716820717
			],
			"min":[
				0.04329988732933998,
				0.06314706057310104,
				-0.015548059716820717
			],
			"type":"VEC3"
		},
		{
			"bufferView":53,
			"componentType":5126,
			"count":28,
			"type":"VEC3"
		},
		{
			"bufferView":54,
			"componentType":5126,
			"count":28,
			"type":"VEC2"
		},
		{
			"bufferView":55,
			"componentType":5123,
			"count":60,
			"type":"SCALAR"
		},
		{
			"bufferView":56,
			"componentType":5126,
			"count":29,
			"max":[
				0.06984390318393707,
				0.07144486904144287,
				0.007766987197101116
			],
			"min":[
				0.05005311965942383,
				0.05327385291457176,
				-0.007766988128423691
			],
			"type":"VEC3"
		},
		{
			"bufferView":57,
			"componentType":5126,
			"count":29,
			"type":"VEC3"
		},
		{
			"bufferView":58,
			"componentType":5126,
			"count":29,
			"type":"VEC2"
		},
		{
			"bufferView":59,
			"componentType":5123,
			"count":60,
			"type":"SCALAR"
		},
		{
			"bufferView":60,
			"componentType":5126,
			"count":42,
			"max":[
				-0.0748286172747612,
				-0.014202150516211987,
				0.007275885436683893
			],
			"min":[
				-0.08743082731962204,
				-0.0322522334754467,
				-0.007275889161974192
			],
			"type":"VEC3"
		},
		{
			"bufferView":61,
			"componentType":5126,
			"count":42,
			"type":"VEC3"
		},
		{
			"bufferView":62,
			"componentType":5126,
			"count":42,
			"type":"VEC2"
		},
		{
			"bufferView":63,
			"componentType":5123,
			"count":96,
			"type":"SCALAR"
		},
		{
			"bufferView":64,
			"componentType":5126,
			"count":32,
			"max":[
				0.02442980743944645,
				0.02442980743944645,
				0.06565900146961212
			],
			"min":[
				-0.02442980743944645,
				-0.02442980743944645,
				-0.06565900146961212
			],
			"type":"VEC3"
		},
		{
			"bufferView":65,
			"componentType":5126,
			"count":32,
			"type":"VEC3"
		},
		{
			"bufferView":66,
			"componentType":5126,
			"count":32,
			"type":"VEC2"
		},
		{
			"bufferView":67,
			"componentType":5123,
			"count":84,
			"type":"SCALAR"
		}
	],
	"bufferViews":[
		{
			"buffer":0,
			"byteLength":600,
			"byteOffset":0,
			"target":34962
		},
		{
			"buffer":0,
			"byteLength":600,
			"byteOffset":600,
			"target":34962
		},
		{
			"buffer":0,
			"byteLength":400,
			"byteOffset":1200,
			"target":34962
		},
		{
			"buffer":0,
			"byteLength":264,
			"byteOffset":1600,
			"target":34963
		},
		{
			"buffer":0,
			"byteLength":768,
			"byteOffset":1864,
			"target":34962
		},
		{
			"buffer":0,
			"byteLength":768,
			"byteOffset":2632,
			"target":34962
		},
		{
			"buffer":0,
			"byteLength":512,
			"byteOffset":3400,
			"target":34962
		},
		{
			"buffer":0,
			"byteLength":264,
			"byteOffset":3912,
			"target":34963
		},
		{
			"buffer":0,
			"byteLength":288,
			"byteOffset":4176,
			"target":34962
		},
		{
			"buffer":0,
			"byteLength":288,
			"byteOffset":4464,
			"target":34962
		},
		{
			"buffer":0,
			"byteLength":192,
			"byteOffset":4752,
			"target":34962
		},
		{
			"buffer":0,
			"byteLength":72,
			"byteOffset":4944,
			"target":34963
		},
		{
			"buffer":0,
			"byteLength":2472,
			"byteOffset":5016,
			"target":34962
		},
		{
			"buffer":0,
			"byteLength":2472,
			"byteOffset":7488,
			"target":34962
		},
		{
			"buffer":0,
			"byteLength":1648,
			"byteOffset":9960,
			"target":34962
		},
		{
			"buffer":0,
			"byteLength":1296,
			"byteOffset":11608,
			"target":34963
		},
		{
			"buffer":0,
			"byteLength":288,
			"byteOffset":12904,
			"target":34962
		},
		{
			"buffer":0,
			"byteLength":288,
			"byteOffset":13192,
			"target":34962
		},
		{
			"buffer":0,
			"byteLength":192,
			"byteOffset":13480,
			"target":34962
		},
		{
			"buffer":0,
			"byteLength":72,
			"byteOffset":13672,
			"target":34963
		},
		{
			"buffer":0,
			"byteLength":4848,
			"byteOffset":13744,
			"target":34962
		},
		{
			"buffer":0,
			"byteLength":4848,
			"byteOffset":18592,
			"target":34962
		},
		{
			"buffer":0,
			"byteLength":3232,
			"byteOffset":23440,
			"target":34962
		},
		{
			"buffer":0,
			"byteLength":2472,
			"byteOffset":26672,
			"target":34963
		},
		{
			"buffer":0,
			"byteLength":576,
			"byteOffset":29144,
			"target":34962
		},
		{
			"buffer":0,
			"byteLength":576,
			"byteOffset":29720,
			"target":34962
		},
		{
			"buffer":0,
			"byteLength":384,
			"byteOffset":30296,
			"target":34962
		},
		{
			"buffer":0,
			"byteLength":216,
			"byteOffset":30680,
			"target":34963
		},
		{
			"buffer":0,
			"byteLength":480,
			"byteOffset":30896,
			"target":34962
		},
		{
			"buffer":0,
			"byteLength":480,
			"byteOffset":31376,
			"target":34962
		},
		{
			"buffer":0,
			"byteLength":320,
			"byteOffset":31856,
			"target":34962
		},
		{
			"buffer":0,
			"byteLength":168,
			"byteOffset":32176,
			"target":34963
		},
		{
			"buffer":0,
			"byteLength":456,
			"byteOffset":32344,
			"target":34962
		},
		{
			"buffer":0,
			"byteLength":456,
			"byteOffset":32800,
			"target":34962
		},
		{
			"buffer":0,
			"byteLength":304,
			"byteOffset":33256,
			"target":34962
		},
		{
			"buffer":0,
			"byteLength":168,
			"byteOffset":33560,
			"target":34963
		},
		{
			"buffer":0,
			"byteLength":480,
			"byteOffset":33728,
			"target":34962
		},
		{
			"buffer":0,
			"byteLength":480,
			"byteOffset":34208,
			"target":34962
		},
		{
			"buffer":0,
			"byteLength":320,
			"byteOffset":34688,
			"target":34962
		},
		{
			"buffer":0,
			"byteLength":168,
			"byteOffset":35008,
			"target":34963
		},
		{
			"buffer":0,
			"byteLength":1152,
			"byteOffset":35176,
			"target":34962
		},
		{
			"buffer":0,
			"byteLength":1152,
			"byteOffset":36328,
			"target":34962
		},
		{
			"buffer":0,
			"byteLength":768,
			"byteOffset":37480,
			"target":34962
		},
		{
			"buffer":0,
			"byteLength":288,
			"byteOffset":38248,
			"target":34963
		},
		{
			"buffer":0,
			"byteLength":288,
			"byteOffset":38536,
			"target":34962
		},
		{
			"buffer":0,
			"byteLength":288,
			"byteOffset":38824,
			"target":34962
		},
		{
			"buffer":0,
			"byteLength":192,
			"byteOffset":39112,
			"target":34962
		},
		{
			"buffer":0,
			"byteLength":72,
			"byteOffset":39304,
			"target":34963
		},
		{
			"buffer":0,
			"byteLength":504,
			"byteOffset":39376,
			"target":34962
		},
		{
			"buffer":0,
			"byteLength":504,
			"byteOffset":39880,
			"target":34962
		},
		{
			"buffer":0,
			"byteLength":336,
			"byteOffset":40384,
			"target":34962
		},
		{
			"buffer":0,
			"byteLength":192,
			"byteOffset":40720,
			"target":34963
		},
		{
			"buffer":0,
			"byteLength":336,
			"byteOffset":40912,
			"target":34962
		},
		{
			"buffer":0,
			"byteLength":336,
			"byteOffset":41248,
			"target":34962
		},
		{
			"buffer":0,
			"byteLength":224,
			"byteOffset":41584,
			"target":34962
		},
		{
			"buffer":0,
			"byteLength":120,
			"byteOffset":41808,
			"target":34963
		},
		{
			"buffer":0,
			"byteLength":348,
			"byteOffset":41928,
			"target":34962
		},
		{
			"buffer":0,
			"byteLength":348,
			"byteOffset":42276,
			"target":34962
		},
		{
			"buffer":0,
			"byteLength":232,
			"byteOffset":42624,
			"target":34962
		},
		{
			"buffer":0,
			"byteLength":120,
			"byteOffset":42856,
			"target":34963
		},
		{
			"buffer":0,
			"byteLength":504,
			"byteOffset":42976,
			"target":34962
		},
		{
			"buffer":0,
			"byteLength":504,
			"byteOffset":43480,
			"target":34962
		},
		{
			"buffer":0,
			"byteLength":336,
			"byteOffset":43984,
			"target":34962
		},
		{
			"buffer":0,
			"byteLength":192,
			"byteOffset":44320,
			"target":34963
		},
		{
			"buffer":0,
			"byteLength":384,
			"byteOffset":44512,
			"target":34962
		},
		{
			"buffer":0,
			"byteLength":384,
			"byteOffset":44896,
			"target":34962
		},
		{
			"buffer":0,
			"byteLength":256,
			"byteOffset":45280,
			"target":34962
		},
		{
			"buffer":0,
			"byteLength":168,
			"byteOffset":45536,
			"target":34963
		}
	],
	"samplers":[
		{
			"magFilter":9729,
			"minFilter":9987
		}
	],
	"buffers":[
		{
			"byteLength":45704,
			"uri":"robot-final.bin"
		}
	]
}
