{
	"asset":{
		"generator":"Khronos glTF Blender I/O v4.4.55",
		"version":"2.0"
	},
	"scene":0,
	"scenes":[
		{
			"name":"Scene",
			"nodes":[
				0,
				1,
				2,
				3,
				4,
				5
			]
		}
	],
	"nodes":[
		{
			"mesh":0,
			"name":"Cube"
		},
		{
			"mesh":1,
			"name":"Cube.001"
		},
		{
			"mesh":2,
			"name":"Cube.002"
		},
		{
			"mesh":3,
			"name":"Cylinder"
		},
		{
			"mesh":4,
			"name":"Cube.003"
		},
		{
			"mesh":5,
			"name":"Cylinder.001"
		}
	],
	"materials":[
		{
			"doubleSided":true,
			"name":"Basic",
			"pbrMetallicRoughness":{
				"baseColorFactor":[
					0.36408132314682007,
					0.36408132314682007,
					0.36408132314682007,
					1
				],
				"metallicFactor":0,
				"roughnessFactor":0.5
			}
		}
	],
	"meshes":[
		{
			"name":"Cube.001",
			"primitives":[
				{
					"attributes":{
						"POSITION":0,
						"NORMAL":1
					},
					"indices":2,
					"material":0
				}
			]
		},
		{
			"name":"Cube.002",
			"primitives":[
				{
					"attributes":{
						"POSITION":3,
						"NORMAL":4
					},
					"indices":2,
					"material":0
				}
			]
		},
		{
			"name":"Cube.003",
			"primitives":[
				{
					"attributes":{
						"POSITION":5,
						"NORMAL":6
					},
					"indices":2,
					"material":0
				}
			]
		},
		{
			"name":"Cylinder",
			"primitives":[
				{
					"attributes":{
						"POSITION":7,
						"NORMAL":8
					},
					"indices":9,
					"material":0
				}
			]
		},
		{
			"name":"Cube.004",
			"primitives":[
				{
					"attributes":{
						"POSITION":10,
						"NORMAL":11
					},
					"indices":12,
					"material":0
				}
			]
		},
		{
			"name":"Cylinder.001",
			"primitives":[
				{
					"attributes":{
						"POSITION":13,
						"NORMAL":14
					},
					"indices":15,
					"material":0
				}
			]
		}
	],
	"accessors":[
		{
			"bufferView":0,
			"componentType":5126,
			"count":24,
			"max":[
				0.044533416628837585,
				0.01905956119298935,
				0.04839179292321205
			],
			"min":[
				-0.0901734009385109,
				-0.0179792158305645,
				-0.04839179292321205
			],
			"type":"VEC3"
		},
		{
			"bufferView":1,
			"componentType":5126,
			"count":24,
			"type":"VEC3"
		},
		{
			"bufferView":2,
			"componentType":5123,
			"count":36,
			"type":"SCALAR"
		},
		{
			"bufferView":3,
			"componentType":5126,
			"count":24,
			"max":[
				0.03311261907219887,
				0.06057405471801758,
				0.04033414274454117
			],
			"min":[
				-0.05668269470334053,
				0.01905956119298935,
				-0.04033414274454117
			],
			"type":"VEC3"
		},
		{
			"bufferView":4,
			"componentType":5126,
			"count":24,
			"type":"VEC3"
		},
		{
			"bufferView":5,
			"componentType":5126,
			"count":24,
			"max":[
				0.016911152750253677,
				0.08882215619087219,
				0.03746563196182251
			],
			"min":[
				-0.04310651123523712,
				0.06057405844330788,
				0.00139036460313946
			],
			"type":"VEC3"
		},
		{
			"bufferView":6,
			"componentType":5126,
			"count":24,
			"type":"VEC3"
		},
		{
			"bufferView":7,
			"componentType":5126,
			"count":128,
			"max":[
				-0.07245940715074539,
				0.22555847465991974,
				0.04668275639414787
			],
			"min":[
				-0.08735314756631851,
				0.01905956119298935,
				-0.04668275639414787
			],
			"type":"VEC3"
		},
		{
			"bufferView":8,
			"componentType":5126,
			"count":128,
			"type":"VEC3"
		},
		{
			"bufferView":9,
			"componentType":5123,
			"count":168,
			"type":"SCALAR"
		},
		{
			"bufferView":10,
			"componentType":5126,
			"count":24,
			"max":[
				0.0620696097612381,
				0.0820217877626419,
				0.012717721983790398
			],
			"min":[
				0.044983189553022385,
				0.05637717247009277,
				-0.012717721983790398
			],
			"type":"VEC3"
		},
		{
			"bufferView":11,
			"componentType":5126,
			"count":24,
			"type":"VEC3"
		},
		{
			"bufferView":12,
			"componentType":5123,
			"count":36,
			"type":"SCALAR"
		},
		{
			"bufferView":13,
			"componentType":5126,
			"count":192,
			"max":[
				0.033135220408439636,
				0.033135220408439636,
				0.06565900146961212
			],
			"min":[
				-0.033135220408439636,
				-0.033135220408439636,
				-0.06565900146961212
			],
			"type":"VEC3"
		},
		{
			"bufferView":14,
			"componentType":5126,
			"count":192,
			"type":"VEC3"
		},
		{
			"bufferView":15,
			"componentType":5123,
			"count":360,
			"type":"SCALAR"
		}
	],
	"bufferViews":[
		{
			"buffer":0,
			"byteLength":288,
			"byteOffset":0,
			"target":34962
		},
		{
			"buffer":0,
			"byteLength":288,
			"byteOffset":288,
			"target":34962
		},
		{
			"buffer":0,
			"byteLength":72,
			"byteOffset":576,
			"target":34963
		},
		{
			"buffer":0,
			"byteLength":288,
			"byteOffset":648,
			"target":34962
		},
		{
			"buffer":0,
			"byteLength":288,
			"byteOffset":936,
			"target":34962
		},
		{
			"buffer":0,
			"byteLength":288,
			"byteOffset":1224,
			"target":34962
		},
		{
			"buffer":0,
			"byteLength":288,
			"byteOffset":1512,
			"target":34962
		},
		{
			"buffer":0,
			"byteLength":1536,
			"byteOffset":1800,
			"target":34962
		},
		{
			"buffer":0,
			"byteLength":1536,
			"byteOffset":3336,
			"target":34962
		},
		{
			"buffer":0,
			"byteLength":336,
			"byteOffset":4872,
			"target":34963
		},
		{
			"buffer":0,
			"byteLength":288,
			"byteOffset":5208,
			"target":34962
		},
		{
			"buffer":0,
			"byteLength":288,
			"byteOffset":5496,
			"target":34962
		},
		{
			"buffer":0,
			"byteLength":72,
			"byteOffset":5784,
			"target":34963
		},
		{
			"buffer":0,
			"byteLength":2304,
			"byteOffset":5856,
			"target":34962
		},
		{
			"buffer":0,
			"byteLength":2304,
			"byteOffset":8160,
			"target":34962
		},
		{
			"buffer":0,
			"byteLength":720,
			"byteOffset":10464,
			"target":34963
		}
	],
	"buffers":[
		{
			"byteLength":11184,
			"uri":"robot-low.bin"
		}
	]
}
