{
	"asset":{
		"generator":"Khronos glTF Blender I/O v4.4.55",
		"version":"2.0"
	},
	"scene":0,
	"scenes":[
		{
			"name":"Scene",
			"nodes":[
				0
			]
		}
	],
	"nodes":[
		{
			"mesh":0,
			"name":"imagetostl_mesh2"
		}
	],
	"materials":[
		{
			"doubleSided":true,
			"name":"mat2",
			"pbrMetallicRoughness":{
				"baseColorFactor":[
					0.9607843160629272,
					0.9607843160629272,
					0.9490196108818054,
					1
				],
				"metallicFactor":0,
				"roughnessFactor":0.4000000059604645
			}
		},
		{
			"doubleSided":true,
			"name":"mat0",
			"pbrMetallicRoughness":{
				"baseColorFactor":[
					0.9607843160629272,
					0.9607843160629272,
					0.9490196108818054,
					1
				],
				"metallicFactor":0,
				"roughnessFactor":0.4000000059604645
			}
		},
		{
			"doubleSided":true,
			"name":"mat1",
			"pbrMetallicRoughness":{
				"baseColorFactor":[
					0.9607843160629272,
					0.9607843160629272,
					0.9490196108818054,
					1
				],
				"metallicFactor":0,
				"roughnessFactor":0.4000000059604645
			}
		},
		{
			"doubleSided":true,
			"name":"mat3",
			"pbrMetallicRoughness":{
				"baseColorFactor":[
					0.9607843160629272,
					0.9607843160629272,
					0.9490196108818054,
					1
				],
				"metallicFactor":0,
				"roughnessFactor":0.4000000059604645
			}
		},
		{
			"doubleSided":true,
			"name":"mat4",
			"pbrMetallicRoughness":{
				"baseColorFactor":[
					0.9607843160629272,
					0.9607843160629272,
					0.9490196108818054,
					1
				],
				"metallicFactor":0,
				"roughnessFactor":0.4000000059604645
			}
		},
		{
			"doubleSided":true,
			"name":"mat5",
			"pbrMetallicRoughness":{
				"baseColorFactor":[
					0.9607843160629272,
					0.9607843160629272,
					0.9490196108818054,
					1
				],
				"metallicFactor":0,
				"roughnessFactor":0.4000000059604645
			}
		},
		{
			"doubleSided":true,
			"name":"mat6",
			"pbrMetallicRoughness":{
				"baseColorFactor":[
					0.9607843160629272,
					0.9607843160629272,
					0.9490196108818054,
					1
				],
				"metallicFactor":0,
				"roughnessFactor":0.4000000059604645
			}
		},
		{
			"doubleSided":true,
			"name":"mat7",
			"pbrMetallicRoughness":{
				"baseColorFactor":[
					0.9607843160629272,
					0.9607843160629272,
					0.9490196108818054,
					1
				],
				"metallicFactor":0,
				"roughnessFactor":0.4000000059604645
			}
		}
	],
	"meshes":[
		{
			"name":"imagetostl_mesh2",
			"primitives":[
				{
					"attributes":{
						"POSITION":0,
						"NORMAL":1
					},
					"indices":2,
					"material":0
				},
				{
					"attributes":{
						"POSITION":3,
						"NORMAL":4
					},
					"indices":5,
					"material":1
				},
				{
					"attributes":{
						"POSITION":6,
						"NORMAL":7
					},
					"indices":8,
					"material":2
				},
				{
					"attributes":{
						"POSITION":9,
						"NORMAL":10
					},
					"indices":11,
					"material":3
				},
				{
					"attributes":{
						"POSITION":12,
						"NORMAL":13
					},
					"indices":14,
					"material":4
				},
				{
					"attributes":{
						"POSITION":15,
						"NORMAL":16
					},
					"indices":17,
					"material":5
				},
				{
					"attributes":{
						"POSITION":18,
						"NORMAL":19
					},
					"indices":20,
					"material":6
				},
				{
					"attributes":{
						"POSITION":21,
						"NORMAL":22
					},
					"indices":23,
					"material":7
				}
			]
		}
	],
	"accessors":[
		{
			"bufferView":0,
			"componentType":5126,
			"count":45086,
			"max":[
				1.3544286489486694,
				0.7237839698791504,
				1.4079110622406006
			],
			"min":[
				-1.3628333806991577,
				-0.014057844877243042,
				-1.2408075332641602
			],
			"type":"VEC3"
		},
		{
			"bufferView":1,
			"componentType":5126,
			"count":45086,
			"type":"VEC3"
		},
		{
			"bufferView":2,
			"componentType":5123,
			"count":70113,
			"type":"SCALAR"
		},
		{
			"bufferView":3,
			"componentType":5126,
			"count":19696,
			"max":[
				1.172890305519104,
				0.7183222770690918,
				1.1624560356140137
			],
			"min":[
				-1.172890305519104,
				0.598710834980011,
				-1.1725256443023682
			],
			"type":"VEC3"
		},
		{
			"bufferView":4,
			"componentType":5126,
			"count":19696,
			"type":"VEC3"
		},
		{
			"bufferView":5,
			"componentType":5123,
			"count":26088,
			"type":"SCALAR"
		},
		{
			"bufferView":6,
			"componentType":5126,
			"count":32482,
			"max":[
				1.2328341007232666,
				0.6385816335678101,
				1.2663401365280151
			],
			"min":[
				-1.2328341007232666,
				-0.025899499654769897,
				-1.2759547233581543
			],
			"type":"VEC3"
		},
		{
			"bufferView":7,
			"componentType":5126,
			"count":32482,
			"type":"VEC3"
		},
		{
			"bufferView":8,
			"componentType":5123,
			"count":49941,
			"type":"SCALAR"
		},
		{
			"bufferView":9,
			"componentType":5126,
			"count":97090,
			"max":[
				1.065959095954895,
				0.7183222770690918,
				0.9265117049217224
			],
			"min":[
				-1.065959095954895,
				0.6303683519363403,
				-0.9702703952789307
			],
			"type":"VEC3"
		},
		{
			"bufferView":10,
			"componentType":5126,
			"count":97090,
			"type":"VEC3"
		},
		{
			"bufferView":11,
			"componentType":5125,
			"count":152805,
			"type":"SCALAR"
		},
		{
			"bufferView":12,
			"componentType":5126,
			"count":71779,
			"max":[
				0.9767314195632935,
				0.7183222770690918,
				0.9700673818588257
			],
			"min":[
				-1.1046168804168701,
				0.0445152223110199,
				-1.3153949975967407
			],
			"type":"VEC3"
		},
		{
			"bufferView":13,
			"componentType":5126,
			"count":71779,
			"type":"VEC3"
		},
		{
			"bufferView":14,
			"componentType":5125,
			"count":111255,
			"type":"SCALAR"
		},
		{
			"bufferView":15,
			"componentType":5126,
			"count":69102,
			"max":[
				0.485220730304718,
				0.45517855882644653,
				0.283078670501709
			],
			"min":[
				-0.8400657773017883,
				0.06205807626247406,
				-0.6703697443008423
			],
			"type":"VEC3"
		},
		{
			"bufferView":16,
			"componentType":5126,
			"count":69102,
			"type":"VEC3"
		},
		{
			"bufferView":17,
			"componentType":5125,
			"count":94173,
			"type":"SCALAR"
		},
		{
			"bufferView":18,
			"componentType":5126,
			"count":38130,
			"max":[
				1.3586311340332031,
				0.7183222770690918,
				1.4129705429077148
			],
			"min":[
				-1.3586310148239136,
				0.012220025062561035,
				-1.2962079048156738
			],
			"type":"VEC3"
		},
		{
			"bufferView":19,
			"componentType":5126,
			"count":38130,
			"type":"VEC3"
		},
		{
			"bufferView":20,
			"componentType":5123,
			"count":84576,
			"type":"SCALAR"
		},
		{
			"bufferView":21,
			"componentType":5126,
			"count":61258,
			"max":[
				0.5514679551124573,
				0.5660977363586426,
				0.283078670501709
			],
			"min":[
				-1.1046168804168701,
				0.0445152223110199,
				-1.3153949975967407
			],
			"type":"VEC3"
		},
		{
			"bufferView":22,
			"componentType":5126,
			"count":61258,
			"type":"VEC3"
		},
		{
			"bufferView":23,
			"componentType":5123,
			"count":73422,
			"type":"SCALAR"
		}
	],
	"bufferViews":[
		{
			"buffer":0,
			"byteLength":541032,
			"byteOffset":0,
			"target":34962
		},
		{
			"buffer":0,
			"byteLength":541032,
			"byteOffset":541032,
			"target":34962
		},
		{
			"buffer":0,
			"byteLength":140226,
			"byteOffset":1082064,
			"target":34963
		},
		{
			"buffer":0,
			"byteLength":236352,
			"byteOffset":1222292,
			"target":34962
		},
		{
			"buffer":0,
			"byteLength":236352,
			"byteOffset":1458644,
			"target":34962
		},
		{
			"buffer":0,
			"byteLength":52176,
			"byteOffset":1694996,
			"target":34963
		},
		{
			"buffer":0,
			"byteLength":389784,
			"byteOffset":1747172,
			"target":34962
		},
		{
			"buffer":0,
			"byteLength":389784,
			"byteOffset":2136956,
			"target":34962
		},
		{
			"buffer":0,
			"byteLength":99882,
			"byteOffset":2526740,
			"target":34963
		},
		{
			"buffer":0,
			"byteLength":1165080,
			"byteOffset":2626624,
			"target":34962
		},
		{
			"buffer":0,
			"byteLength":1165080,
			"byteOffset":3791704,
			"target":34962
		},
		{
			"buffer":0,
			"byteLength":611220,
			"byteOffset":4956784,
			"target":34963
		},
		{
			"buffer":0,
			"byteLength":861348,
			"byteOffset":5568004,
			"target":34962
		},
		{
			"buffer":0,
			"byteLength":861348,
			"byteOffset":6429352,
			"target":34962
		},
		{
			"buffer":0,
			"byteLength":445020,
			"byteOffset":7290700,
			"target":34963
		},
		{
			"buffer":0,
			"byteLength":829224,
			"byteOffset":7735720,
			"target":34962
		},
		{
			"buffer":0,
			"byteLength":829224,
			"byteOffset":8564944,
			"target":34962
		},
		{
			"buffer":0,
			"byteLength":376692,
			"byteOffset":9394168,
			"target":34963
		},
		{
			"buffer":0,
			"byteLength":457560,
			"byteOffset":9770860,
			"target":34962
		},
		{
			"buffer":0,
			"byteLength":457560,
			"byteOffset":10228420,
			"target":34962
		},
		{
			"buffer":0,
			"byteLength":169152,
			"byteOffset":10685980,
			"target":34963
		},
		{
			"buffer":0,
			"byteLength":735096,
			"byteOffset":10855132,
			"target":34962
		},
		{
			"buffer":0,
			"byteLength":735096,
			"byteOffset":11590228,
			"target":34962
		},
		{
			"buffer":0,
			"byteLength":146844,
			"byteOffset":12325324,
			"target":34963
		}
	],
	"buffers":[
		{
			"byteLength":12472168,
			"uri":"robot-high.bin"
		}
	]
}
